# xmcd
#
# Track frame offsets: 
#        150
#        15755
#        26898
#        42569
#        59036
#        75806
#
# Disc length: 1202 seconds
#
# Revision: 0
# Processed by: cddbd v1.5.2PL0 Copyright (c) Steve Scherf et al.
# Submitted via: ExactAudioCopy v1.3
#
DISCID=3f04b006
DTITLE=Meg Williams - Maybe Someday
DYEAR=2017
DGENRE=Contemporary Blues
TTITLE0=Not My Problem
TTITLE1=Bad Lovin'
TTITLE2=Little Bit Of The Devil
TTITLE3=Maybe Someday
TTITLE4=You Let Me Down
TTITLE5=I Feel A Heartache Coming
EXTD=
EXTT0=
EXTT1=
EXTT2=
EXTT3=
EXTT4=
EXTT5=
PLAYORDER=
